<svg id="Layer_1" data-name="Layer 1"
  xmlns="http://www.w3.org/2000/svg" viewBox="0 0 1236.82 801.72">
  <defs>
    <style>.cls-1,.cls-2{fill:#2f3c7e;}.cls-2{opacity:0.1;}</style>
  </defs>
  <path class="cls-1" d="M1196.64,1038.66a2.61,2.61,0,0,1,0,.39,9.63,9.63,0,0,1-.15,1.49,3,3,0,0,1-.07.51,8,8,0,0,1-.37,1.5.12.12,0,0,1-.07.12,4.44,4.44,0,0,1-.57,1.13.72.72,0,0,1-.19.26,3.2,3.2,0,0,1-.86.86,15.17,15.17,0,0,1-3.94,1.91,5.26,5.26,0,0,0,.17.78.78.78,0,0,1-1.29.76,5.73,5.73,0,0,1-.93-1.29c-1.91,0-2.89-1.06-2.75-1.77,0,0-3.77,2.43-7.54,2a7.26,7.26,0,0,1-.24,1,.68.68,0,0,1-1.25.18,16,16,0,0,1-.83-1.87,6.41,6.41,0,0,1-1.86-1.41,16.33,16.33,0,0,1-5.53.85,6.31,6.31,0,0,0,.27,1.08.65.65,0,0,1-1.08.61,8.56,8.56,0,0,1-1.27-2,5.92,5.92,0,0,1-4.09-3.52,2.76,2.76,0,0,1-2.4.22c0,.49,0,1,0,1.42s-.66.68-.86.27c-.9-1.84-2.12-5.29-.63-7.12a.55.55,0,0,1,0-.18,3,3,0,0,1,.13-.68c0-.42.12-.81.19-1.2s.12-.47.17-.69c.12-.41.22-.83.34-1.27a.13.13,0,0,1,.05-.12c.62-2.16,1.37-4.14,1.72-5.31.76-2.5,2.22-22-6.68-37.62-4-7.05-7.57-13.79-10.41-19.41-1.69-3.38-3.13-6.39-4.28-8.82s-2-4.35-2.45-5.55c-1.35-3.38-6.34-28.4-20.09-44.28a106.49,106.49,0,0,0-18.73-20.56,83.66,83.66,0,0,1,9.2,19c-21.68,10.53-45.11,9.13-61.78,5.7l-7.05-63.52-.34,65.16a91.75,91.75,0,0,1-5.46,30.62c-5.82,16.21-14.22,40.61-13.44,44.7.57,3,1.28,5.73,1.91,8.47.2.9.4,1.81.59,2.69a35.48,35.48,0,0,1,.54,14.42,60,60,0,0,0,.44,25.14c1,4.21,4.53,13.43,6.12,21.14v.1c.2.84.32,1.64.46,2.45,0,.22.08.47.1.69a1.38,1.38,0,0,1,0,.34c.09.73.14,1.42.19,2.08v.37a10.39,10.39,0,0,1-.46,3.81,2.63,2.63,0,0,1-.1.3,4.35,4.35,0,0,1-.71,1.22s0,0,0,0a2.37,2.37,0,0,1-.69.51h0a3.79,3.79,0,0,1-.66.29,3,3,0,0,1-.44,1.25.65.65,0,0,1-.61.17c-.44-.09-.83-.58-1.15-1.07a12.28,12.28,0,0,1-2.13-.08h-.27a12.78,12.78,0,0,1-3.09,1.64s0,0,0,0a6.48,6.48,0,0,1-.88.29l-.1,0a19.59,19.59,0,0,1-2.08.54c0,.27-.15.46-.2.71a1.54,1.54,0,0,1-2.93,0,2,2,0,0,1-.08-.37h-.49c-.66,0-1.32,0-2-.07-.22-.05-.46-.07-.71-.12a20.43,20.43,0,0,1-2.25-.42,1.78,1.78,0,0,1-.34-.05l-.1.05s0,0,0,0a1.57,1.57,0,0,1-.19.12c-.08,0-.08,0-.15.08s-.27.17-.42.24-.19.07-.27.12l-.44.15a1.54,1.54,0,0,0-.32.15l-.88.24a2.3,2.3,0,0,1-.36.07c-.25.05-.52.08-.79.15a2.8,2.8,0,0,1-.51,0,6.7,6.7,0,0,1-1.23.09,1.2,1.2,0,0,1-.34,0c-.44,0-1,0-1.54-.05h-.24a5.24,5.24,0,0,1-.81,1.12.93.93,0,0,1-1.52-.39c-.12-.36-.27-.71-.37-1-.27,0-.61-.17-1-.22s-.64-.15-1-.22-.85-.22-1.32-.37a14.58,14.58,0,0,1-1.64-.51c-.27-.07-.51-.12-.83-.22a9.72,9.72,0,0,1-3-.2h-.05a10.46,10.46,0,0,1-1.32-.41c-.12,0-.22-.08-.34-.1a3,3,0,0,1-.57-.25,17.17,17.17,0,0,0-.34,1.77c-.07.49-.56.8-1,1h0c-.15,0-.25,0-.35,0a1.38,1.38,0,0,1-1.22-.71,11.12,11.12,0,0,1-1-4.77l0,0-.15-.17c-.09-.1-.14-.1-.19-.2a1.22,1.22,0,0,1-.2-.34s-.07-.13-.09-.17-.08-.32-.13-.52a1.47,1.47,0,0,1,0-.29c0-.2,0-.42,0-.69v-.34c0-.29,0-.64,0-.93v-.15a24.59,24.59,0,0,1,.34-2.89v-.07s0-.07,0-.1c.22-1.39.54-2.88.9-4.38a39.38,39.38,0,0,1,3.11-9.15c2.11-3.5,8.79-6.59,8.49-14.84-.48-12.63,1.28-30,1.91-43s1.64-26-4.06-44.64c-5.24-17.16-7.15-43.67-7.2-43.67-.09.22-5.5,11.31-45.28,18.28,0,0,0-.05-.05-.07-24.79,2.5-38.35-17.28-46-41.88l.15.81q1.53,8.65,2.27,17.4c-1.54,15-4.6,42-7.61,55.61-4.33,19.51-1.74,52.9,0,56.81.47,1,0,2.38-.76,3.82l-.05,0c1,2.13.71,5.26-.71,6.8a.5.5,0,0,1-.63,0,6.46,6.46,0,0,1-1.37-3.16c-2.38,2.7-5,5.07-4.92,5.51.17.78-3.65,22.54-7,29a1.72,1.72,0,0,1-.22.41v0a0,0,0,0,1-.05,0,1.76,1.76,0,0,1-.29.44,1.14,1.14,0,0,1-.29.39.65.65,0,0,1-.1.15c-.25.22-.54.44-.83.68a.75.75,0,0,0-.17.1,7.82,7.82,0,0,1-.84.51,1.79,1.79,0,0,1-.24.15c-.27.17-.56.32-.86.47l-.32.12c-.29.14-.61.27-.93.41a2.47,2.47,0,0,1-.29.1c-.39.17-.78.3-1.17.44a.16.16,0,0,0-.1,0c-.39.1-.79.24-1.2.32-.25,0-.47.12-.69.17l-.51.09a4.25,4.25,0,0,1-.78.15,1.83,1.83,0,0,1-.4,0l-.46.07h0a5.68,5.68,0,0,1-1.24,1.52.74.74,0,0,1-1.13-.17,2.71,2.71,0,0,1-.32-1.32,5,5,0,0,1-1.15-.3l-.07,0a2.34,2.34,0,0,1-.49-.27.06.06,0,0,1,0,0,1.62,1.62,0,0,1-.37-.37v0a24.31,24.31,0,0,1-5.41,2.22.14.14,0,0,0-.1,0c-.31.07-.68.19-1.05.27a1.58,1.58,0,0,0-.34.07c-.27.07-.56.12-.86.17l-.49.08a6.9,6.9,0,0,0-.78.09,3.87,3.87,0,0,1-.56,0,7.81,7.81,0,0,1-.81,0c-.17,0-.39,0-.61,0l-.81,0a5.82,5.82,0,0,1-.59,0,11.38,11.38,0,0,1-1.37-.17c-.24.51-.46,1.05-.73,1.59a.66.66,0,0,1-.79.29,2.86,2.86,0,0,1-1.66-2.72,15.61,15.61,0,0,1-5.48.17h-.15a4.21,4.21,0,0,1-.76-.14l-.34-.08a2.41,2.41,0,0,0-.37-.07,4,4,0,0,1-1,1.37.2.2,0,0,1-.29,0,7.9,7.9,0,0,1-.81-2.18l-.07-.07a7,7,0,0,1-1.42-1l-.27-.27a7.73,7.73,0,0,1-1.13-1.28c-.05-.07-.1-.09-.14-.19a4.15,4.15,0,0,1-1-.39.65.65,0,0,1-.15-.1c-.15-.07-.29-.17-.47-.27l-.26-.22c-.15-.12-.25-.2-.4-.34a3.43,3.43,0,0,1-.71,1.81.58.58,0,0,1-.61.17c-1.37-.42-1.61-2.69-1.27-3.87a6.51,6.51,0,0,1,1.66-2.93,0,0,0,0,0,0,0l0,0v0a7.24,7.24,0,0,1,.46-1.1s0,0,0-.1a1.18,1.18,0,0,0,.12-.27c.15-.22.24-.49.41-.78s.25-.37.35-.56l.68-1.08a3,3,0,0,1,.27-.42c.15-.22.32-.46.49-.68a9.23,9.23,0,0,1,.56-.76h0c3.62-4.53,9.64-9.06,17.13-8.71,0,0,8.72-20.71,11.53-25.7s4.78-6.71,3.26-19.73c0-.1,0-.17,0-.3s0,.05,0,.05c0-.22-.05-.44-.1-.68s-.07-.47-.1-.74c-.12-.78-.27-1.69-.44-2.67s-.37-2-.59-3.25c-.19-1-.36-2.06-.61-3.18-.1-.49-.19-1-.29-1.5s-.25-1.24-.39-1.88c-.39-2-.81-4-1.25-6.14-.2-.91-.37-1.84-.56-2.79a2.5,2.5,0,0,1-.1-.49c-.2-1-.42-1.94-.61-2.94-.62-2.89-1.25-5.93-1.91-9-.17-.79-.32-1.55-.49-2.33-.37-1.84-.79-3.72-1.18-5.58-.22-1.13-.44-2.28-.68-3.38-.57-2.67-1.1-5.29-1.64-7.88-.37-1.76-.71-3.53-1.06-5.24-.63-3.08-1.22-6.07-1.76-8.91-.1-.56-.22-1.15-.32-1.66-1.12-5.78-2-11-2.66-15.15-.08-.59-.15-1.13-.25-1.69-.12-1.15-.24-2.18-.34-3.11a.46.46,0,0,1,0-.2c0-.51-.07-1-.14-1.47s-.05-.93-.05-1.34,0-.61,0-.86c0-.56.13-1.2.22-1.84a2.09,2.09,0,0,1,.08-.34,25.73,25.73,0,0,1,.78-3.45c3.23-11.58,12.61-28.25,12.8-31,0-.19,0-.49.05-.78v-.88c0-.27,0-.56,0-.86A105.16,105.16,0,0,1,865,884.08c8.81-23.69-9.05-49.37-13.63-55.41-.08-.25-.22-1.06-.27-1.2,0-.42-.12-.79-.2-1.23,0,0,0,0,0,0-.07-.29-.12-1-.14-1-.08-.86-.15-1.79-.2-2.77v-.12c0-1.1,0-2.3,0-3.5,0-.56,0-1.15.1-1.71,0-.71.27-3.55.32-4.26S853,800.34,853.81,797c.13-.42.22-.84.35-1.23.22-1,.54-2,.83-3,0,0,1-3.53,1.37-4.56.15-.44,1.27-3.72,1.27-3.77.74-2,4.43-10.72,5.34-12.58l1.57-3c4.48-8,9.1-15.57,13.12-21.81h0c1.64,1.37,3.26,2.72,4.8,4.07a57.65,57.65,0,0,1,12.75,15.44c4.63,7.83,8.1,10.8,11.16,14.37a26.17,26.17,0,0,0,1,4.58,23.25,23.25,0,0,0,1,2.49,27.52,27.52,0,0,0,3.82,6.46c.52.62,1,1.2,1.52,1.77a29.88,29.88,0,0,0,3.67,3.38,40.44,40.44,0,0,0,6.15,3.89c-2-1.4,9.52,4.43,18.77-1-.44.3-.86.61-1.32,1a44.06,44.06,0,0,0,5.8-3.6,1.87,1.87,0,0,1,.34-.29,27.86,27.86,0,0,0,3.67-3.38c.54-.57,1-1.15,1.52-1.77a27.67,27.67,0,0,0,3.87-6.51c.34-.8.63-1.61.9-2.44a24.49,24.49,0,0,0,1.06-4.58c3.06-3.57,6.51-6.54,11.13-14.37,8.62-14.64,16.23-17.06,28-28.88a82.42,82.42,0,0,0,8.15-9.08,28.57,28.57,0,0,0,3.35-5.83c1.37,2.3-4.48,19.46,9,32.24l-29.27,7s70.83-10.52,83.69,11.58c0-.17.12-.37.17-.57s.14-.58.24-.88c.12-.61.3-1.2.47-1.81.07-.29.14-.64.22-.95.17-.62.29-1.25.46-1.86.1-.37.17-.74.27-1.13.15-.61.27-1.22.44-1.88l.25-1.15c.14-.67.29-1.28.41-2,.1-.39.17-.86.27-1.3.13-.61.25-1.27.39-1.91,3.68-19.14,5.24-43.23-4.6-59.36-.76-1.22-1.49-2.4-2.25-3.52-.15-.3-.34-.56-.49-.81-.68-1.05-1.39-2.08-2.08-3.11a.71.71,0,0,1-.15-.22c-1.66-2.37-3.33-4.65-5-6.8-13.68-17.82-26.75-27.76-26.75-29.89,0-.34.29-.46.93-.44,5.92.27,37.72,21.1,53,49.47,6.86,12.73,8.84,30.08,8.67,45.89v.42l-.07,3.67a1.09,1.09,0,0,0,0,.32c-.12,4-.39,7.81-.73,11.38,0,.1,0,.25,0,.34-.12,1.08-.22,2.18-.32,3.23a.9.9,0,0,0,0,.23c-.29,2.27-.56,4.45-.86,6.43v.12c-.14.89-.29,1.77-.41,2.6a2.76,2.76,0,0,0-.08.44c-.12.56-.19,1.15-.32,1.69,0,0,0,.07,0,.15s0,.22,0,.34a1.81,1.81,0,0,1-.1.34c-.09.56-.19,1.1-.29,1.64a.21.21,0,0,1,0,.17c-.15.83-.34,1.62-.51,2.33,0,.12,0,.24-.08.39-.12.37-.19.76-.27,1.1a.61.61,0,0,0-.07.17.74.74,0,0,1-.07.32c-.1.32-.17.59-.27.83a1.11,1.11,0,0,1,0,.25s0,.05-.05.1a.49.49,0,0,1,0,.19c9.28,9.47,14.49,18.92,18.14,24.09l-15.28,8.07,24.26-2.13c.69.32,1.42.67,2.13,1a38.3,38.3,0,0,1,6,3.67,14.48,14.48,0,0,1,4.23,4.61c2,3.55,3.87,13.09,6.15,25,.19,1.08.41,2.2.63,3.33,0,.07.05.15.05.22.34,1.91.71,3.87,1.08,5.83a6.67,6.67,0,0,1,.19,1.07c.35,1.57.64,3.21,1,4.85a6.55,6.55,0,0,1,.17.95c.29,1.33.56,2.65.83,4a14.55,14.55,0,0,0,.3,1.49c.29,1.42.58,2.87.9,4.31,0,.22.1.47.12.71.35,1.64.74,3.31,1.11,5,.07.41.19.8.27,1.24.29,1.28.58,2.55.9,3.77.1.49.22.93.34,1.4.37,1.61.79,3.25,1.23,4.85a.26.26,0,0,0,0,.17c.39,1.51.8,3,1.22,4.45.12.42.27.86.37,1.27.34,1.2.73,2.38,1.07,3.5.1.35.25.71.37,1.08.44,1.45.93,2.84,1.42,4.19l.3.73c.56,1.47,1.12,2.91,1.66,4.31a0,0,0,0,1,0,0c.49,1,.93,2,1.4,3a4.62,4.62,0,0,0,.29.59c.57,1.15,1.13,2.18,1.72,3.16.12.26.29.48.41.75.49.74,1,1.45,1.45,2.11a7.88,7.88,0,0,1,.51.73,21.53,21.53,0,0,0,2,2.23c17.16,17.16,4.18,21.1,3.69,26.49s4.9,28,17.16,45.62a93.46,93.46,0,0,1,6.2,10.35c0,.13.12.27.19.42.54,1,1,2.08,1.54,3.08.15.42.32.79.49,1.2.35.76.71,1.55,1.06,2.33.22.59.44,1.2.68,1.79s.44,1.1.66,1.66.44,1.35.66,2c.17.46.35.93.47,1.37.24.66.41,1.34.59,2,.14.42.27.81.39,1.23a49.45,49.45,0,0,1,1.44,7.68s0,0,0,0c0,.22,0,.41,0,.61s0,.51,0,.73A16.89,16.89,0,0,1,1196.64,1038.66Z" transform="translate(-381.59 -599.14)"/>
  <path class="cls-1" d="M1028.36,607.07c-2.25-4.62-26.14-9.79-39.65-7.27a14.21,14.21,0,0,0-6.88,2.72c-1,.78-1.79,1.44-2.52,2.08-6.36,5.56-5.65,6.27-11.11,7.42-3.43.73-68.44.73-71.89,0-5.46-1.15-4.73-1.86-11.12-7.42-.73-.64-1.56-1.3-2.47-2.08a15.6,15.6,0,0,0-6.88-2.72c-13.46-2.52-37.47,2.65-39.67,7.27-2.7,5.68-2.57,32.68-2.26,33.19,2.67-5.8,5.14-7.71,7.35-14.49,0,0,1.39,4.41,2.13,7.79.05.39.12.73.19,1.05,1.06,6.22,3,7.27,5.51,8.86a16.2,16.2,0,0,1,5.56,4.8c5.55,7.39,3,20.26.07,40.43s.76,25.75,12.51,37.55c5.9,5.93,10.74,9.48,15.25,13.42a58.49,58.49,0,0,1,12.75,15.47c4.63,7.83,8.1,10.79,11.16,14.39a25.83,25.83,0,0,0,1,4.55c.27.83.59,1.67,1,2.5a27.33,27.33,0,0,0,3.82,6.43c.52.64,1,1.2,1.52,1.77a26.4,26.4,0,0,0,3.67,3.38,38.94,38.94,0,0,0,6.15,3.89,32.76,32.76,0,0,1-5.46-4.6c-.71-.69-1.37-1.47-2-2.23-.81-1.05-1.55-2.21-2.23-3.28a27.16,27.16,0,0,1-2.69-6.34L911,775a41.84,41.84,0,0,1-.64-7.83c.08-.15,5.36-9.67,2.87-17.18.88,0,1.81,0,2.76-.05a35.91,35.91,0,0,0,4.19-.61,24.75,24.75,0,0,0,2.69-.81c.54-.15,1-.44,1.62-.61,1.15-.54,2.32-1.11,3.45-1.67.05,0,.1-.07.12-.07.86-.44,2.86-1.94,3.74-2.45a3.65,3.65,0,0,0,.42.05h.12c.08,0,.15,0,.22,0,.84.54,3.09,2,3.94,2.43,0,0,.1.07.18.07,1.05.56,2.25,1.13,3.37,1.67.62.17,1.13.46,1.64.61.91.32,1.77.58,2.7.81a36.53,36.53,0,0,0,4.21.61c.93.07,1.88.07,2.76.05-2.49,7.51,2.79,17,2.84,17.18a44.38,44.38,0,0,1-.61,7.83c-.07.22-.12.42-.17.64a24.58,24.58,0,0,1-2.72,6.34,30.8,30.8,0,0,1-2.2,3.28,22.34,22.34,0,0,1-2,2.23,33.59,33.59,0,0,1-5.46,4.6,36.7,36.7,0,0,0,6.14-3.89,24.81,24.81,0,0,0,3.67-3.38c.54-.57,1-1.13,1.52-1.77a26.73,26.73,0,0,0,3.84-6.43,25.32,25.32,0,0,0,.93-2.5,24.18,24.18,0,0,0,1.06-4.55c3.06-3.6,6.51-6.56,11.13-14.39,8.62-14.64,16.23-17.07,28-28.89a82.43,82.43,0,0,0,8.15-9.1c5.21-7.1,6.51-14.08,4.4-28.45-3-20.17-5.5-33,0-40.43a16.64,16.64,0,0,1,5.58-4.87c2.55-1.52,4.46-2.6,5.51-8.89l.2-1c.68-3.38,2.1-7.79,2.1-7.79,2.18,6.78,4.68,8.69,7.32,14.49C1030.91,639.75,1031.05,612.75,1028.36,607.07Zm-67.19,58.55a6.73,6.73,0,0,0,2.69,7.17c-3,.66-5.26,4.73-5.26,4.73A15.12,15.12,0,0,1,961.17,665.62Zm-57.81,0a15.21,15.21,0,0,1,2.57,11.9s-2.3-4.07-5.24-4.73A6.72,6.72,0,0,0,903.36,665.62Zm-29.25-39.38c.07,3.25-.86,4.67-4,5.82-1.59.59-3.33.84-4.83,1.55a6.18,6.18,0,0,0-3.52,4c-1,3.26-1.08,6.24-2.82,7.12a3.44,3.44,0,0,1-2.32,0,14.52,14.52,0,0,1-6.34-3.69,15.17,15.17,0,0,1-4.16-6.88c-.25-1-.52-1.84-.78-2.72-1.23-4.38-2.28-8-2.5-8.79a13,13,0,0,1,1-1.17l0-.07,2.08-2a1.18,1.18,0,0,1,.2-.17c.36-.37.78-.66,1.15-1a22.19,22.19,0,0,0,2.23-2.11c.31-.39.66-.78,1-1.22.22-.22.39-.57.61-.81.39-.56.83-1.1,1.22-1.62a17.22,17.22,0,0,1,2.21-2.08c.24-.19.56-.36.83-.56s.64-.37.93-.51c.91-.42,1.86-.84,2.82-1.2.68-.22,1.29-.42,2-.57a18.49,18.49,0,0,1,3.06-.54c.39,0,.74-.07,1.1-.07a5.92,5.92,0,0,1,1.11.07,18.86,18.86,0,0,1,3,.2c.66.12,1.37.29,2.08.42.29.12.68.14,1,.27,1.07.31,2.3.41,3.47.63a7,7,0,0,1,2.23.79,2.85,2.85,0,0,1,.88.61,7.85,7.85,0,0,1,1.25,1.51,5.77,5.77,0,0,1,.64,1.35,2.74,2.74,0,0,1,.26.91,4.57,4.57,0,0,1,0,1.42,13.51,13.51,0,0,1-2.3,3.79C875.94,621.15,873.93,623,874.11,626.24ZM877.83,666s7.49-11.7,17.91-7.12a12.22,12.22,0,0,1,3.33,2.08,6.86,6.86,0,0,0-2.66-.57,6.51,6.51,0,0,0-2.33.37,9.39,9.39,0,0,0-2,1.08,4.42,4.42,0,0,1-.3,7.95,4.75,4.75,0,0,1-1.71.35H890a6.5,6.5,0,0,0,3.72,3.59C887.69,674.75,880.2,673.68,877.83,666Zm86.5,78.6c.07,2.32-.76,5.85-4.5,10.25,0,0,.22-4.7-1.15-7.93a14.2,14.2,0,0,1-10-.78c-1.1-.54-11.45-3.94-15.15-5.24-.61-.22-1.08-.39-1.25-.47h-.12c-.15.08-.64.27-1.25.49-3.72,1.28-14.05,4.68-15.15,5.22a13.82,13.82,0,0,1-9.25.93c-2.13,3.06-1.84,9.27-1.84,9.27-4.6-5.43-4.79-9.47-4.35-11.65a31.38,31.38,0,0,1-12.49-12.8c-1.93-3.79-2.69-7.76-1.56-11.23v0c2.32-7,11.52-6.51,14.46-18.41,3-12.12,7.66-13.31,11.65-17.65s6.24-7.93,10-18.13a47.76,47.76,0,0,0,2.28-11.22c.41-3.89.58-8.12.68-12.21.08-5.7,0-11.16,0-15.18.05-2.81,3.28-6.21,6.8-9.1,3.48,2.81,6.9,6.09,6.93,9.1,0,4,0,9.48,0,15.18.12,4.09.24,8.32.68,12.21a45.35,45.35,0,0,0,2.28,11.22c3.74,10.2,6,13.75,10,18.13s8.67,5.53,11.65,17.65c2.45,10,9.35,11.29,12.88,15.54a8.36,8.36,0,0,1,1.61,2.87v0C980.78,728.72,973.41,739.54,964.33,744.59Zm6.41-70.87a6.61,6.61,0,0,0,3.77-3.59h-.07a4.75,4.75,0,0,1-1.71-.35,4.46,4.46,0,0,1-2.67-4,4.39,4.39,0,0,1,2.35-3.91,8.79,8.79,0,0,0-2-1.08,6.93,6.93,0,0,0-5,.2,11.58,11.58,0,0,1,3.32-2.08c10.46-4.58,17.92,7.12,17.92,7.12C984.3,673.68,976.84,674.75,970.74,673.72Zm48.44-42.32c-.27.86-.54,1.81-.78,2.77a14.83,14.83,0,0,1-4.16,6.83,13.75,13.75,0,0,1-6.37,3.74,3.45,3.45,0,0,1-2.32,0c-1.71-.88-1.79-3.86-2.79-7.12a6.3,6.3,0,0,0-3.53-4c-1.51-.71-3.23-1-4.84-1.55-3.14-1.15-4-2.57-3.94-5.82s-1.86-5.09-4.9-7.37a14.51,14.51,0,0,1-2.3-3.79,6.29,6.29,0,0,1,.07-1.42,2.35,2.35,0,0,1,.27-.91,5.35,5.35,0,0,1,.62-1.35,9.07,9.07,0,0,1,1.24-1.51,3.6,3.6,0,0,1,1-.61,6.47,6.47,0,0,1,2.18-.79c1.17-.22,2.37-.32,3.45-.63.36-.13.73-.15,1.07-.27.71-.13,1.4-.3,2.06-.42,1-.15,1.93-.2,3-.27h1.05c.37,0,.71.07,1.08.07a18.31,18.31,0,0,1,3.06.54c.66.15,1.3.35,2,.57.95.36,1.93.78,2.81,1.2a9.72,9.72,0,0,1,1,.51c.24.2.56.37.81.56a14.67,14.67,0,0,1,2.17,2.08,19.41,19.41,0,0,1,1.25,1.62c.22.24.44.59.64.81.32.44.66.83,1,1.22a19.38,19.38,0,0,0,2.23,2.11c.37.39.76.68,1.15,1a.34.34,0,0,1,.17.17c.69.66,1.37,1.3,2.08,2l.08.07c.29.34.66.76,1,1.17C1021.46,623.45,1020.41,627.07,1019.18,631.4Z" transform="translate(-381.59 -599.14)"/>
  <path class="cls-1" d="M933,774.92c-.06-3.06-.06-6.13-.11-9.25l-.15-4.57c-.11-1.5-.16-3.06-.26-4.57-.11,1.15-.16,2.29-.21,3.43,0-1.14-.1-2.28-.21-3.43-.1,1.51-.15,3.07-.26,4.57l-.15,4.57c-.06,3.12-.06,6.19-.11,9.25,0,.83,0,1.72.05,2.55s0,1.68,0,2.52c0,2.13,0,4.26-.07,6.38,0,.83,0,1.71.05,2.54,0,2.24,0,4.42.06,6.65v.11c.05.78.05,1.5.05,2.28a8.85,8.85,0,0,1,0,1.15c0,1,.31,1.14.36,2.23,0,.26.06.47.06.67.05.63.05,1.2.1,1.72,0-.52,0-1.09.1-1.72,0-.2,0-.41,0-.67.06-1.09.32-1.2.37-2.23a8.85,8.85,0,0,1,.05-1.15c0-.78,0-1.5,0-2.28v-.11c0-2.23,0-4.41,0-6.65.06-.83.06-1.71.06-2.54,0-2.12-.06-4.25-.08-6.38,0-.84,0-1.68,0-2.52S933,775.75,933,774.92Z" transform="translate(-381.59 -599.14)"/>
  <path class="cls-1" d="M932.58,697.22H932c-6.36,0-24.92,2-22.42,17.45,1.25,7.57,4.8,10.16,9.06,11.85,2.69,1.08,5.55,1.81,7.83,3.33.41.29.83.56,1.2.86a8.31,8.31,0,0,0,4.55,1.56h.12a8.29,8.29,0,0,0,4.56-1.56c.39-.3.78-.57,1.2-.86,2.3-1.52,5.16-2.25,7.88-3.33,4.23-1.69,7.76-4.28,9-11.85C957.45,699.25,938.9,697.22,932.58,697.22Zm-10,23.79c-5.48.35-7.1-2.15-7.91-3.45,1.86,1,5.66-3.52,8.69-3.2S928,720.67,922.62,721Zm19.31,0c-5.46-.34-3.91-6.38-.83-6.65s6.85,4.16,8.71,3.2C949,718.86,947.37,721.36,941.93,721Z" transform="translate(-381.59 -599.14)"/>
  <path class="cls-1" d="M918.07,798.92v0c-.54-.52-2.3-1.73-2.3-1.73S916.61,797.9,918.07,798.92Z" transform="translate(-381.59 -599.14)"/>
  <ellipse class="cls-2" cx="618.41" cy="464.35" rx="243.39" ry="23.42"/>
  <path class="cls-1" d="M588.5,1360.3c0-9.3,0-15.47-.25-18.17-.17-2.37-.93-3.89-3-4.31a20.26,20.26,0,0,0-3.21-.34c-1.1,0-1.52-.34-1.52-.85s.26-.84,1.86-.84c3.63,0,12.26.25,13.69.25,4,0,8.79-.25,12.68-.25,11.49,0,17.07,2.7,20.45,5.83a15.38,15.38,0,0,1,4.56,11.24c0,13-11.92,20-23.58,20a13.69,13.69,0,0,1-2.62-.26c-.51-.16-.93-.33-.93-.84s.34-.85,1.86-.85c7,0,10.4-5.49,10.4-13.09,0-5.84-1.1-10.48-4.14-13.78a10.78,10.78,0,0,0-8-3.46,12.59,12.59,0,0,0-2.28.17c-.68.16-1,.67-1,2.11v32.28c0,6.59,0,14.28.43,17.83.17,2.45.75,4.06,3.29,4.57a33.37,33.37,0,0,0,3.72.42c1.27,0,1.6.25,1.6.93,0,.42-.42.76-1.68.76-5.83,0-14.79-.26-15.56-.26-.42,0-9.63.26-12.5.26-1.19,0-1.69-.26-1.69-.85s.67-.84,1.6-.84,1.7-.17,2.54-.34c1.69-.34,2.45-1.52,2.79-4.73.34-3.55.5-9.55.5-17.75Z" transform="translate(-381.59 -599.14)"/>
  <path class="cls-1" d="M660.58,1360.3c0-13.78-.09-15.47-.25-18.17-.17-2.45-.93-3.89-3.05-4.4a26.84,26.84,0,0,0-2.78-.25c-1.1-.09-1.52-.42-1.52-.93s.5-.76,1.85-.76c4.82,0,8.88.25,12.59.25l23.84-.08a29.65,29.65,0,0,0,4.56-.34,6.1,6.1,0,0,1,1.35-.34c.42,0,.51.34.51.76s-.17,1.27-.42,3.72c-.26,1.69-.43,4.65-.68,9,0,.68-.34,1.19-.84,1.19s-.77-.43-.85-1.19a9.82,9.82,0,0,0-.42-3c-.43-1.95-1.53-3-5.58-3.38-2.79-.26-10.14-.43-12.68-.43-.51,0-.67.26-.67.85v18.59c0,.59.08,1,.67,1,2.37.09,9.22,0,12.25-.08,4.15-.17,5.25-.42,6.18-2,.5-.75.75-1.09,1.18-1.09s.5.5.5,1c0,.85-.42,3.89-.67,7.18-.08,2-.08,6.09-.08,7,0,1.1-.26,1.6-.76,1.6s-.77-.59-.94-1.35-.16-1.27-.25-1.94c-.33-2.45-1.52-3.89-5.66-4.14-2.37-.17-9.3-.34-11.91-.34-.43,0-.51.42-.51,1.1v5.83c0,2.87-.09,7.86,0,11.07.08,5.91,1.26,7.27,10.64,7.27a23.38,23.38,0,0,0,7.86-1c2.37-.93,3.38-2.79,4.15-6.67.16-1,.5-1.52,1-1.52.67,0,.76.84.76,1.85a69.65,69.65,0,0,1-1.35,11.33c-.59,2.2-1.19,2.28-4.31,2.28-11.67,0-18-.51-26.88-.51-4,0-7.51.26-12.16.26-1.53,0-2-.26-2-.85,0-.42.42-.84,1.69-.84a17.3,17.3,0,0,0,2.53-.34c2.37-.34,2.71-3.55,2.88-8.88.16-3.38.25-8.36.25-13.6Z" transform="translate(-381.59 -599.14)"/>
  <path class="cls-1" d="M754.37,1375.17c0,6.59,0,14.45.42,18,.17,2.2.77,4,3.3,4.4,1.1.16,2.11.25,3.63.42,1.36.08,1.7.33,1.7.93s-.43.76-1.95.76c-5.75,0-13.94-.26-15.29-.26s-9.64.26-12.43.26c-1.35,0-1.94-.17-1.94-.85s.68-.84,1.69-.84c.85-.09,1.77-.17,2.7-.34,1.86-.34,2.45-2.2,2.71-4.65.34-3.55.51-9.63.51-17.83V1342c-3.3,0-8.54-.08-12.77.17-4.73.26-6.59,1.35-7.69,4.31a16,16,0,0,0-.75,1.94c-.18.68-.43,1.36-1,1.36-.76,0-.76-.68-.68-1.69.34-3.47,1.27-8,1.86-11.24.17-1.27.42-2.11.93-2.11a25.16,25.16,0,0,1,2.88.67,64.92,64.92,0,0,0,9.38.59h36.76a34.92,34.92,0,0,0,5.32-.34,21.88,21.88,0,0,1,2.62-.5c.76,0,.85.5.85,2.62,0,1.18-.51,9-.6,11.15-.08,1.18-.33,1.69-.84,1.69-.68,0-.84-.51-.93-1.52a15,15,0,0,0-.17-1.69c-.34-2.62-1.61-4.65-6.59-5-2.79-.26-7.18-.43-13.61-.43Z" transform="translate(-381.59 -599.14)"/>
  <path class="cls-1" d="M864.64,1375.17c0,6.59,0,14.45.42,18,.17,2.2.76,4,3.3,4.4,1.09.16,2.11.25,3.63.42,1.35.08,1.69.33,1.69.93s-.42.76-1.94.76c-5.75,0-14-.26-15.3-.26s-9.63.26-12.42.26c-1.35,0-1.94-.17-1.94-.85s.67-.84,1.69-.84c.84-.09,1.77-.17,2.7-.34,1.86-.34,2.45-2.2,2.71-4.65.33-3.55.5-9.63.5-17.83V1342c-3.3,0-8.53-.08-12.76.17-4.73.26-6.59,1.35-7.69,4.31a18.48,18.48,0,0,0-.76,1.94c-.17.68-.42,1.36-1,1.36-.77,0-.77-.68-.68-1.69.34-3.47,1.27-8,1.86-11.24.17-1.27.42-2.11.93-2.11a24.73,24.73,0,0,1,2.87.67,65.13,65.13,0,0,0,9.38.59h36.76a35.08,35.08,0,0,0,5.33-.34,21.88,21.88,0,0,1,2.62-.5c.76,0,.84.5.84,2.62,0,1.18-.5,9-.59,11.15-.09,1.18-.34,1.69-.84,1.69-.68,0-.85-.51-.93-1.52s-.09-1.27-.17-1.69c-.34-2.62-1.61-4.65-6.6-5-2.78-.26-7.18-.43-13.6-.43Z" transform="translate(-381.59 -599.14)"/>
  <path class="cls-1" d="M913.14,1360.3c0-13.1-.17-14.79-.26-17.5-.17-3.46-1.18-4.56-3.21-5a29.45,29.45,0,0,0-3.38-.34c-1-.09-1.52-.42-1.52-.93s.59-.76,1.86-.76c3.63,0,11.75.25,12.93.25,1.61,0,9.72-.25,13.6-.25,8,0,13.53.76,17.24,2.87a14.36,14.36,0,0,1,7.7,12.93c0,7.1-4.06,12.51-11.33,17,5.15,7.43,11.33,16.48,16.48,22.39,4.48,5,6.51,6.42,8.87,6.76.93.17,1.44.17,2.12.26.93,0,1.43.33,1.43.84,0,.76-.84.85-1.69.85h-7.6c-8.71,0-12.43-.85-15.38-2.79-2.71-1.61-5.41-5.24-8.71-10.57-3.88-6.42-5.83-9.88-7.35-12.16a1.3,1.3,0,0,0-1-.51h-5.58c-.42,0-.68.17-.68.67v4.32a124.79,124.79,0,0,0,.43,14.19c.16,2.2.75,4.06,3.29,4.65a20.72,20.72,0,0,0,3.8.51c1.36.08,1.52.42,1.52.93s-.59.76-1.77.76c-5.66,0-14.87-.26-15.47-.26-1,0-9.21.26-12.08.26-1.27,0-1.69-.26-1.69-.85s.59-.84,1.52-.84,1.94-.17,2.87-.34c1.7-.42,2.37-2,2.62-4.82.34-3.55.43-9.46.43-17.66Zm14.53,5.66a1.26,1.26,0,0,0,.76,1.27,15.36,15.36,0,0,0,6.51,1.09c2.28,0,4-.33,5.32-1.35,1.78-1.35,3.3-5,3.3-10.65,0-12-7.61-15.12-12-15.12a11.67,11.67,0,0,0-3.38.33c-.34.18-.51.26-.51.94Z" transform="translate(-381.59 -599.14)"/>
  <path class="cls-1" d="M1000.5,1382.18c-.42,0-.59.17-.76.6l-2.62,6.93a19,19,0,0,0-1.35,5.4c0,1.61.76,2.37,2.53,2.54.93.17,2.29.25,3,.34,1.27,0,1.52.42,1.52.84,0,.68-.67.85-1.77.85-3.8,0-6.68-.26-11.15-.26-.94,0-6.51.26-10.74.26-1.18,0-1.69-.34-1.69-.85,0-.67.6-.84,1.61-.84a24.51,24.51,0,0,0,2.7-.34c3-.59,4.65-3.21,6.42-7.27l22.57-51c1.6-3.64,2.53-4.9,3.46-4.9s1.61,1.18,3,4.22c2.19,4.74,16.39,37.1,22.14,49.95,2.87,6.59,4.73,8.62,7.69,9a17.77,17.77,0,0,0,2.7.34c1.1,0,1.6.33,1.6.84s-.58.85-2.19.85c-8.28,0-17.92-.17-23.33-.26-1.35,0-1.85-.25-1.85-.76s.42-.84,1.18-1c.93-.17,1.27-.76,1-1.52l-5.66-13.44a.71.71,0,0,0-.67-.51Zm16.91-6.76c.5,0,.5-.25.42-.42l-7.44-18.08c-.25-.6-.42-.43-.59,0l-7.18,18.08c-.09.25.08.42.33.42Z" transform="translate(-381.59 -599.14)"/>
  <path class="cls-1" d="M1070.63,1360.3c0-13.1,0-15.55-.25-18.26-.17-2.36-1.1-3.89-3-4.22a13.56,13.56,0,0,0-2.53-.34c-1,0-1.61-.34-1.61-.93s.42-.76,1.86-.76c3.38,0,11.67.25,12.34.25s10.73-.25,13.77-.25c1.44,0,1.86.34,1.86.84,0,.68-.76.85-1.6.85s-1.36.08-2.45.25c-2.2.42-3,1.52-3.21,4.57-.26,2.7-.26,4.9-.26,18v14.87c0,6.68.09,14.54.43,18.08.17,2.2.67,3.72,3.2,4.32a29.57,29.57,0,0,0,3.73.42c1.43,0,1.77.33,1.77.84s-.42.85-1.77.85c-5.75,0-14.79-.26-15.56-.26-.42,0-9.29.26-12.16.26-1.36,0-2-.17-2-.85s.67-.84,1.69-.84c.84-.09,1.69-.17,2.62-.34,1.77-.26,2.37-2.11,2.62-4.56.34-3.55.5-9.64.5-17.92Z" transform="translate(-381.59 -599.14)"/>
  <path class="cls-1" d="M1122.26,1338.58c.08-2.54.42-4.06,1.44-4.06.67,0,1.1.26,3.29,2,3.55,3,8,7.18,27.3,24.93,8.62,7.94,14.45,13.61,16.73,15.63l-.51-31.69c-.17-4.73-.59-6.93-4-7.52a27.54,27.54,0,0,0-3.71-.42c-1.1,0-1.53-.42-1.53-.85,0-.59.76-.84,1.69-.84,3.39,0,8.88.25,12.26.25,1.86,0,6.08-.25,9.63-.25,1.27,0,1.86.25,1.86.76s-.42.93-1.44.93a9.8,9.8,0,0,0-2.11.25c-2.79.34-3.63,1.78-3.89,7-.67,17-.67,33.89-1,50.87,0,4.31-.59,5.24-1.69,5.24-1.35,0-4-2-9.47-6.85-5.74-5.06-13.18-11.74-18.25-16.39-4.73-4.31-13.18-12.25-19.35-18.25l.84,28.81c.17,6.09.51,8.37,2.88,9.21a21.51,21.51,0,0,0,4.48.6c1.26.08,1.68.33,1.68.84,0,.68-.67.85-2,.85-3,0-5.66-.17-10.9-.26-2,0-8.2.26-11.5.26-1.18,0-1.86-.17-1.86-.85,0-.51.43-.84,1.61-.84.76-.09,1.86-.09,2.79-.26,3.29-.5,3.72-2.62,4-10.47C1121.92,1369.84,1121.75,1349.48,1122.26,1338.58Z" transform="translate(-381.59 -599.14)"/>
  <path class="cls-1" d="M1213.94,1360.3c0-13.1,0-15.55-.26-18.26-.17-2.36-1.1-3.89-3-4.22a13.82,13.82,0,0,0-2.54-.34c-1,0-1.61-.34-1.61-.93s.43-.76,1.86-.76c3.38,0,11.67.25,12.34.25s10.73-.25,13.77-.25c1.44,0,1.86.34,1.86.84,0,.68-.76.85-1.6.85s-1.35.08-2.45.25c-2.2.42-3,1.52-3.21,4.57-.26,2.7-.26,4.9-.26,18v14.87c0,6.68.09,14.54.43,18.08.17,2.2.67,3.72,3.21,4.32a29.41,29.41,0,0,0,3.72.42c1.43,0,1.77.33,1.77.84s-.42.85-1.77.85c-5.75,0-14.79-.26-15.56-.26-.42,0-9.29.26-12.16.26-1.35,0-2-.17-2-.85s.68-.84,1.69-.84c.84-.09,1.69-.17,2.62-.34,1.77-.26,2.37-2.11,2.62-4.56.34-3.55.51-9.64.51-17.92Z" transform="translate(-381.59 -599.14)"/>
  <path class="cls-1" d="M1265.57,1338.58c.08-2.54.42-4.06,1.43-4.06.68,0,1.1.26,3.3,2,3.55,3,7.94,7.18,27.29,24.93,8.63,7.94,14.46,13.61,16.74,15.63l-.51-31.69c-.17-4.73-.59-6.93-4-7.52a27.69,27.69,0,0,0-3.72-.42c-1.1,0-1.52-.42-1.52-.85,0-.59.76-.84,1.69-.84,3.38,0,8.87.25,12.25.25,1.86,0,6.09-.25,9.64-.25,1.26,0,1.85.25,1.85.76s-.42.93-1.43.93a10,10,0,0,0-2.12.25c-2.78.34-3.63,1.78-3.88,7-.68,17-.68,33.89-1,50.87,0,4.31-.58,5.24-1.68,5.24-1.36,0-4-2-9.47-6.85-5.75-5.06-13.18-11.74-18.25-16.39-4.74-4.31-13.19-12.25-19.36-18.25l.85,28.81c.17,6.09.51,8.37,2.87,9.21a21.7,21.7,0,0,0,4.48.6c1.27.08,1.69.33,1.69.84,0,.68-.67.85-2,.85-3,0-5.67-.17-10.91-.26-1.94,0-8.2.26-11.49.26-1.19,0-1.86-.17-1.86-.85,0-.51.42-.84,1.61-.84.76-.09,1.86-.09,2.78-.26,3.3-.5,3.72-2.62,4-10.47C1265.23,1369.84,1265.06,1349.48,1265.57,1338.58Z" transform="translate(-381.59 -599.14)"/>
  <path class="cls-1" d="M1412.34,1391.56c0,5-.17,5.5-1.69,6.09-4.48,1.77-13.1,3.21-20.7,3.21-23.75,0-40.23-10.65-40.23-33.13,0-14.11,7.35-23.07,15.21-27.55,8.71-5.15,17.83-5.57,24.25-5.57a87.08,87.08,0,0,1,13.69,1.18c2.88.34,5.67.93,8.12,1,.76,0,.93.34.84,1.1s-.93,4.31-.93,15.55c0,1.35-.33,1.78-.93,1.78s-.92-.68-1-1.36a13.05,13.05,0,0,0-1-4.22c-1.61-5.75-9.13-9.81-20.88-9.81-6.25,0-11.32,1.78-15.13,6.09-3.29,3.72-5.32,10-5.32,18.25,0,15.13,7.27,31.27,25,31.27,1.18,0,3.46-.08,4.73-1a2.69,2.69,0,0,0,1-2.28V1387c0-3.46,0-6.76-.08-9.89,0-4.81-1.1-6.59-4-7-1.1-.17-2.2-.26-3.64-.42-.67,0-1.35-.34-1.35-.85s.42-.84,1.77-.84c5.5,0,12,.25,14.29.25,3,0,8.53-.25,13.1-.25,1.26,0,1.94.17,1.94.84s-.51.76-1.35.85c-.34,0-1.44.16-2.29.25-2,.42-3,1.35-3.2,4.31-.17,2.7-.26,7.1-.26,11.24Z" transform="translate(-381.59 -599.14)"/>
  <path class="cls-1" d="M402.57,1167c0-30.55-.2-36.36-.41-43-.21-8.52-3.12-11.85-9.14-12.47-2.5-.21-5.41-.42-7.69-.62-3.12-.21-3.74-1-3.74-2.08,0-1.66,1.66-2.08,4.15-2.08,12.68,0,23.07.62,33.25.62,13.71,0,26-.62,34.07-.62,43.84,0,52.15,20.36,52.15,32,0,16.83-11.63,27.63-25.34,34.7,21.81,6.65,40.3,19.94,40.3,45.08,0,23.07-21.61,45.92-62.95,45.92-7.69,0-32.21-1.25-38.44-1.25-9.14,0-18.91.63-30.13.63-2.91,0-4.36-.63-4.36-2.08s1-2.08,4.16-2.08a37.63,37.63,0,0,0,6.23-.83c3.74-.62,6-3.74,6.65-11.43.83-11.42,1.24-23.48,1.24-49.65Zm35.95,35.32c0,10-.21,24.52.41,35.11.42,6.65,1.25,9.35,5.41,11.43a26.64,26.64,0,0,0,13.71,3.32c10.8,0,23.69-7.48,23.69-28.26,0-10.8-2.71-23.06-12.26-32-5.61-5.4-12.88-7.48-19.32-7.9a89.48,89.48,0,0,0-10.4,0c-.83,0-1.24.42-1.24,1.46Zm0-33c0,1.66.83,1.87,1.87,2.08a96.78,96.78,0,0,0,13.09.83c4.78,0,9.56-.83,12.47-3.32,4.36-3.54,6.85-10.81,6.85-19.74,0-16.83-8.31-31-24.72-31a21.89,21.89,0,0,0-7.48,1c-1.25.41-2.08.83-2.08,3.74Z" transform="translate(-381.59 -599.14)"/>
  <path class="cls-1" d="M594.76,1203.72c0,21-.63,35.94,2.91,40.31,2.91,4,6.85,5,24.1,5,11.43,0,18.08-.21,23.89-3.33,5-2.28,8.52-7.69,10.81-17.45.62-2.29,1-4,2.7-4,1.45,0,1.66,1,1.66,4,0,4.78-2.28,24.52-4.36,30.54-1.66,5.4-3.32,5.61-11.64,5.61-28.67,0-48-1.25-70-1.25-9.76,0-21,.63-32.41.63-2.91,0-4.57-.42-4.57-2.29,0-1.24,1.25-1.87,4.15-1.87,2.5-.21,4.79-.41,7.07-.83,7.48-1.24,7.69-5,8.31-21.61.42-8.31.62-20.78.62-33.66V1167c0-33.87-.2-37.61-.62-44.26-.42-5.82-1.87-9.35-7.06-10.8a37.72,37.72,0,0,0-8.11-1c-2.28,0-4.36-.42-4.36-2.08s2.08-2.08,6.23-2.08c11.84,0,22.65.62,30.75.62,1.88,0,27.64-.62,35.12-.62,3.74,0,5,.62,5,1.87,0,1.87-2.08,2.29-5,2.29a50.77,50.77,0,0,0-7.07.83c-5.61,1-7.06,5-7.48,12.26-.41,6.65-.62,10.8-.62,45.08Z" transform="translate(-381.59 -599.14)"/>
  <path class="cls-1" d="M721.29,1198.11c0,28.68,4.36,40.72,15.78,48.83,8.52,5.61,15.59,5.82,20.78,5.82,6.65,0,15.59-1.46,22.86-7.69,11.63-10,11.63-31.79,11.63-53.19V1167c0-30.55,0-36-.42-42.6-.41-7.89-2.07-11.42-8.93-12.67-2.28-.42-3.53-.42-7.69-.83-2.69,0-3.73-.84-3.73-2.08s1-2.08,4.77-2.08c11.85,0,24.52.62,27.85.62,3.73,0,17.24-.62,27.42-.62,3.12,0,4.37.62,4.37,2.08,0,1-.84,1.87-3.54,2.08a40.44,40.44,0,0,0-6.44.83c-5.61,1-7.27,4.15-7.89,12.67-.42,6.65-.63,12.05-.63,42.6v20.36c0,23.68-1,49.24-21.19,65.65-12.88,10.81-29.09,13.72-43.22,13.72-18.28,0-36.57-2.7-49.45-13.92-11-9.15-19.32-24.31-19.32-54.23V1167c0-32.21,0-38-.62-44.68-.42-5.81-1.66-8.51-6.45-10-2.28-.83-7.06-1.25-8.93-1.45-3.11-.21-4.36-1-4.36-2.29s1.66-1.87,5.61-1.87c8.93,0,29.92.62,31.79.62,1.66,0,26.39-.62,33.87-.62,3.53,0,4.57.62,4.57,1.87,0,1.66-1,2.08-3.74,2.29-1.87.2-4.78.41-6.86.83-5.82,1.25-6.86,5.61-7.27,12.26s-.62,16.41-.62,43Z" transform="translate(-381.59 -599.14)"/>
  <path class="cls-1" d="M869.43,1167c0-33.87-.21-38-.63-44.68-.41-6-2.28-9.55-7.48-10.8a66.26,66.26,0,0,0-6.85-.62c-2.71-.21-3.75-1-3.75-2.29s1.25-1.87,4.58-1.87c11.84,0,21.81.62,31,.62,4.36,0,55.26-.2,58.59-.2a73.86,73.86,0,0,0,11.22-.83,14.87,14.87,0,0,1,3.32-.83c1,0,1.25.83,1.25,1.86s-.42,3.12-1,9.15c-.63,4.15-1,11.43-1.66,22.23,0,1.66-.84,2.91-2.08,2.91-1,0-1.87-1-2.08-2.91a24.5,24.5,0,0,0-1-7.27c-1-4.78-3.74-7.48-13.71-8.31-6.86-.63-24.93-1-31.17-1-1.24,0-1.66.62-1.66,2.07v45.71c0,1.46.21,2.5,1.66,2.5,5.82.21,22.65,0,30.13-.21,10.18-.42,12.88-1,15.17-4.78,1.25-1.87,1.87-2.7,2.91-2.7,1.24,0,1.24,1.25,1.24,2.49,0,2.08-1,9.56-1.66,17.66-.21,4.78-.21,15-.21,17.25,0,2.7-.62,4-1.87,4-1.45,0-1.87-1.46-2.28-3.33-.21-1.66-.42-3.11-.63-4.78-.83-6-3.73-9.55-13.92-10.18-5.81-.41-22.85-.83-29.29-.83-1,0-1.25,1-1.25,2.7v14.34c0,7.06-.21,19.32,0,27.22.21,14.54,3.12,17.87,26.18,17.87,5.4,0,13.51-.21,19.32-2.5s8.31-6.86,10.18-16.41q.63-3.73,2.5-3.74c1.66,0,1.87,2.08,1.87,4.57,0,8.1-2.29,23.89-3.33,27.84-1.45,5.4-2.91,5.61-10.59,5.61-28.68,0-44.26-1.25-66.07-1.25-9.77,0-18.5.63-29.92.63-3.75,0-5-.63-5-2.08,0-1,1-2.08,4.16-2.08a41.3,41.3,0,0,0,6.23-.83c5.81-.83,6.65-8.72,7.06-21.82.42-8.31.63-20.57.63-33.45Z" transform="translate(-381.59 -599.14)"/>
  <path class="cls-1" d="M1069.7,1167c0-30.55,0-36.36-.41-43-.42-6-1.46-11.64-9.35-12.47-1.66-.21-3.74-.21-7.69-.62-3.11-.21-3.94-1.25-3.94-2.29,0-1.25,1.24-1.87,4.77-1.87,5.2,0,24.31.62,33.46.62,6.85,0,16.2-.2,33.65-.41,35.53.21,63.37,4.78,82.28,24.1,10.6,10.6,20,28,20,52.78,0,25.13-11,45.71-22.86,56.92-10.18,10.39-29.29,24.73-71.06,24.73-8.31,0-15.37-.21-22.23-.83-8.1-.83-16.62-1.46-20.57-1.46-5,0-10,0-15.79.21s-8.52.42-14.33.42c-3.54,0-4.16-1-4.16-2.08,0-1.45,1.66-2.08,3.95-2.08a53.86,53.86,0,0,0,6.44-.83c4.15-.62,6.23-4.57,6.86-12.67.62-10,1-24.73,1-42.6Zm36.78,23.27c0,22,.21,36.36.42,40.3.41,8.52,1.24,12.68,3.53,15,3.74,4.58,12.26,7.48,21.4,7.48,14.54,0,26.8-3.11,37.81-14.54,10.81-10.8,13.51-29.3,13.51-48.83a81.32,81.32,0,0,0-15.59-47.58c-14.33-18.7-34.07-22.64-47.78-22.64-4.57,0-9.35.62-11.22,1.66-1.66.83-1.87,1.87-1.87,3.74.21,7.06-.21,22-.21,38.85Z" transform="translate(-381.59 -599.14)"/>
  <path class="cls-1" d="M1247.34,1185.85c0-41.55,27.84-82.07,88.93-82.07,52.77,0,85.81,35.32,85.81,77.5,0,48.41-32.83,85.4-87.27,85.4C1273.52,1266.68,1247.34,1222.63,1247.34,1185.85Zm133.18,4.57c0-34.49-14.33-73.76-51.11-73.76-19.12,0-40.51,10.6-40.51,59.84,0,39.27,16.41,76.88,52.15,76.88C1353.93,1253.38,1380.52,1247.77,1380.52,1190.42Z" transform="translate(-381.59 -599.14)"/>
  <path class="cls-1" d="M1601,1243.82c0,12.26-.41,13.51-4.16,15-11,4.36-32.2,7.9-50.9,7.9-58.38,0-98.9-26.18-98.9-81.45,0-34.7,18.07-56.72,37.4-67.74,21.4-12.67,43.84-13.71,59.63-13.71a214.32,214.32,0,0,1,33.66,2.91c7.06.83,13.92,2.29,19.94,2.49,1.88,0,2.29.83,2.08,2.71-.41,2.07-2.28,10.59-2.28,38.23,0,3.32-.84,4.36-2.29,4.36s-2.28-1.66-2.49-3.32a31.76,31.76,0,0,0-2.5-10.39c-3.94-14.13-22.43-24.11-51.31-24.11-15.38,0-27.85,4.37-37.2,15-8.1,9.15-13.09,24.52-13.09,44.88,0,37.19,17.87,76.88,61.5,76.88,2.91,0,8.52-.21,11.64-2.49a6.58,6.58,0,0,0,2.49-5.61V1232.6c0-8.52,0-16.62-.2-24.31,0-11.84-2.7-16.2-9.77-17.24-2.7-.42-5.4-.63-8.93-1-1.67,0-3.33-.83-3.33-2.08s1-2.08,4.37-2.08c13.5,0,29.5.63,35.11.63,7.48,0,21-.63,32.2-.63,3.12,0,4.78.42,4.78,2.08,0,1.46-1.24,1.87-3.32,2.08-.83,0-3.54.41-5.61.62-5,1-7.27,3.32-7.9,10.6-.41,6.65-.62,17.45-.62,27.63Z" transform="translate(-381.59 -599.14)"/>
</svg>