<svg id="outward-hound-logo" xmlns="http://www.w3.org/2000/svg" viewBox="0 0 155 64">
  <path d="M152.9 49.1C152.9 53.2 149.6 56.5 145.5 56.5H117.3C116.8 53.8 114.5 51.8 111.7 51.8H54.4C51.6 51.8 49.3 53.8 48.8 56.5H9.4C5.3 56.5 2 53.2 2 49.1V9.4C2 5.3 5.3 2 9.4 2H73.8C77.8 2 81.1 5.3 81.1 9.3V14.2H146.6C150.1 14.2 152.9 17 152.9 20.5V49.1Z" fill="white"/>
  <path d="M152.9 49.1C152.9 53.2 149.6 56.5 145.5 56.5H117.3C116.8 53.8 114.5 51.8 111.7 51.8H54.4C51.6 51.8 49.3 53.8 48.8 56.5H9.4C5.3 56.5 2 53.2 2 49.1V9.4C2 5.3 5.3 2 9.4 2H73.8C77.8 2 81.1 5.3 81.1 9.3V14.2H146.6C150.1 14.2 152.9 17 152.9 20.5V49.1ZM146.7 12.2H83.2V9.4C83.2 4.2 79 0 73.8 0H9.4C4.2 0 0 4.2 0 9.4V49C0 54.2 4.2 58.4 9.4 58.4H48.8C49.3 61.1 51.6 63.1 54.4 63.1H111.8C114.6 63.1 116.9 61.1 117.4 58.4H145.6C150.8 58.4 155 54.2 155 49V20.5C155 15.9 151.3 12.2 146.7 12.2Z" fill="#636569"/>
  <path d="M55.6 57.5C55.6 57.3 55.6 57.2 55.4 57.2C55.2 57.2 55.1 57.3 55 57.3V56.2C55 56.2 55.5 56 56 56C56.5 56 56.8 56.2 56.9 56.6C57.1 56.3 57.3 56 57.8 56C58.2 56 58.5 56.1 58.5 56.2L58.3 57.5C58.3 57.5 57.9 57.3 57.6 57.3C57.2 57.3 57 57.6 57 58V60H55.6V57.5Z" fill="white"/>
  <path d="M61.6 57.4C61.5 57.3 61.2 57.2 61 57.2C60.6 57.2 60.3 57.5 60.3 58C60.3 58.5 60.6 58.8 61 58.8C61.2 58.8 61.5 58.7 61.6 58.6V57.4ZM63 58.5C63 58.7 63.0001 58.8 63.2001 58.8C63.3001 58.8 63.4 58.8 63.6 58.7V59.8C63.4 59.9 63 60 62.6 60C62.1 60 61.8001 59.8 61.7001 59.5C61.4001 59.7 61 60 60.5 60C59.5 60 58.8 59.2 58.8 58C58.8 56.8 59.5 56 60.5 56C61 56 61.3 56.2 61.5 56.4V56.1H63V58.5Z" fill="white"/>
  <path d="M65.6 58.5C65.6 58.7 65.6 58.8 65.8 58.8C66 58.8 66.1 58.7 66.2 58.7V59.8C66.2 59.8 65.7 60 65.2 60C64.6 60 64.2 59.7 64.2 58.8V56.1H65.6V58.5ZM64.9 54.5C65.3 54.5 65.6 54.7 65.6 55.1C65.6 55.6 65.3 55.7 64.9 55.7C64.4 55.7 64.1 55.5 64.1 55.1C64.1 54.6 64.4 54.5 64.9 54.5Z" fill="white"/>
  <path d="M69.5 57.3C69.1 57.1 68.7 57 68.4 57C68.2 57 68 57.1 68 57.2C68 57.3 68.1 57.4 68.2 57.4L68.8 57.6C69.5 57.8 69.7 58.2 69.7 58.7C69.7 59.4 69.1 60 68.1 60C67.4 60 66.9 59.8 66.6 59.7L66.9 58.7C67.3 58.9 67.7 59.1 68.1 59.1C68.3 59.1 68.4 59 68.4 58.9C68.4 58.8 68.3 58.7 68.1 58.7L67.6 58.5C67 58.3 66.7 58 66.7 57.4C66.7 56.6 67.4 56.1 68.5 56.1C69 56.1 69.6 56.2 69.9 56.4L69.5 57.3Z" fill="white"/>
  <path d="M73 57.5C73 57.2 72.8 57 72.4 57C72 57 71.8 57.2 71.7 57.6L73 57.5ZM74.1 59.5C73.7 59.8 73.1 60 72.4 60C71 60 70.3 59.1 70.3 58C70.3 56.8 71.1 56 72.3 56C73.5 56 74 56.7 74 57.6C74 57.9 74 58.2 73.9 58.3H71.6C71.7 58.7 71.9 58.9 72.5 58.9C72.8 58.9 73.3 58.7 73.5 58.6L74.1 59.5Z" fill="white"/>
  <path d="M78.2 55.1V56.1H79.5V57.2H78.2V58.3C78.2 58.6 78.3 58.8 78.6 58.8C78.8 58.8 79.1 58.7 79.3 58.6L79.7 59.7C79.3 59.9 78.8 60.1 78.2 60.1C77.4 60.1 76.9 59.6 76.9 58.6V57.3H76.3V56.2H77L77.2 55.2H78.2V55.1Z" fill="white"/>
  <path d="M81.7 54.7V56.4C82 56.1 82.3 56 82.8 56C83.8 56 84.2 56.8 84.2 57.7V58.5C84.2 58.7 84.2 58.8 84.4 58.8C84.5 58.8 84.6 58.8 84.8 58.7V59.8C84.6 59.9 84.2 60 83.8 60C83.2 60 82.8 59.7 82.8 58.9V58C82.8 57.6 82.6 57.4 82.3 57.4C82 57.4 81.8 57.6 81.7 57.7V60H80.3V54.8H81.7V54.7Z" fill="white"/>
  <path d="M87.7 57.5C87.7 57.2 87.5 57 87.1 57C86.7 57 86.5 57.2 86.4 57.6L87.7 57.5ZM88.8 59.5C88.4 59.8 87.8 60 87.2 60C85.8 60 85.1 59.1 85.1 58C85.1 56.8 85.9 56 87.1 56C88.3 56 88.8 56.7 88.8 57.6C88.8 57.9 88.8 58.2 88.7 58.3H86.4C86.5 58.7 86.7 58.9 87.3 58.9C87.6 58.9 88.1 58.7 88.3 58.6L88.8 59.5Z" fill="white"/>
  <path d="M95.1 56.1V58.1C95.1 58.5 95.2 58.7 95.5 58.7C95.9 58.7 96 58.4 96 58C96 57.2 95.7 56.6 95.5 56.1H97C97.1 56.4 97.4 57.2 97.4 58.1C97.4 59.2 96.7 60 95.6 60C95 60 94.6 59.8 94.4 59.4C94.1 59.8 93.7 60 93.1 60C92 60 91.5 59.4 91.5 58.3V57.5C91.5 57.3 91.5 57.2 91.3 57.2C91.1 57.2 91 57.3 90.9 57.3V56.2C91.2 56.1 91.5 56 91.9 56C92.6 56 92.9 56.4 92.9 57.1V58C92.9 58.4 93 58.6 93.3 58.6C93.6 58.6 93.8 58.4 93.8 57.9V56H95.1V56.1Z" fill="white"/>
  <path d="M100.1 58.7C100.5 58.7 100.8 58.4 100.8 58C100.8 57.6 100.5 57.3 100.1 57.3C99.7 57.3 99.4 57.6 99.4 58C99.4 58.4 99.7 58.7 100.1 58.7ZM100.1 56C101.3 56 102.2 56.9 102.2 58C102.2 59.1 101.3 60 100.1 60C98.9 60 98 59.1 98 58C98 56.8 98.9 56 100.1 56Z" fill="white"/>
  <path d="M104.7 58.7C105.1 58.7 105.4 58.4 105.4 58C105.4 57.6 105.1 57.3 104.7 57.3C104.3 57.3 104 57.6 104 58C103.9 58.4 104.2 58.7 104.7 58.7ZM104.7 56C105.9 56 106.8 56.9 106.8 58C106.8 59.1 105.9 60 104.7 60C103.5 60 102.6 59.1 102.6 58C102.6 56.8 103.5 56 104.7 56Z" fill="white"/>
  <path d="M107.1 56.2H107.7V56C107.7 55.2 108.1 54.6 109.1 54.6C109.4 54.6 109.9 54.7 110.1 54.8L109.9 55.9C109.8 55.8 109.6 55.8 109.4 55.8C109.2 55.8 109.1 55.9 109.1 56.1V56.3H110V57.4H109.1V60H107.7V57.4H107.1V56.2Z" fill="white"/>
  <path d="M133.3 44C134.7 44 136.2 43.4 137.1 42.7V36C136 35.2 134.6 34.7 133.3 34.7C130.6 34.7 128.9 36.5 128.9 39.3C128.9 42.1 130.6 44 133.3 44ZM145.6 18.9V42.2C145.6 43.3 145.7 44.2 146.8 44.2C147.4 44.2 148.1 44 148.9 43.7L149.2 50.5C148 50.9 145.6 51.4 143.2 51.4C140.4 51.4 138.5 50.5 137.6 48.2C136.2 50.1 134 51.4 130.7 51.4C124.5 51.4 120.1 46.3 120.1 39.3C120.1 32.3 124.5 27.3 130.7 27.3C133.4 27.3 135.5 28.3 137 29.7V18.9H145.6Z" fill="#636569"/>
  <path d="M118.8 34.9C118.1 35.2 117.3 35.4 116.6 35.4C115.6 35.4 115.4 34.5 115.4 33.4V28.7V23.8L106.6 18.9L100.2 22.2V18.8H91.7V42.1H95.8H98.9L99.4 41.7L100.7 39.8L101 39C101 38.6 101.6 37.5 101.6 37.5C101.8 37 102.6 36.4 102.6 36.4C102.9 36.1 103.5 35.6 103.5 35.6C103.5 35 103.4 34.5 103.4 34.5C103.4 34 103.2 33.4 103.2 33.4L102.3 31.6L101.7 30.5L101.2 29.7L100.8 29.1C100.4 28.6 100.5 28.1 100.5 28.1C100.5 27.9 100.6 27.7 100.6 27.7C100.6 27.7 100.6 27.7 100.6 27.6C100.6 27.5 100.7 27.3 100.9 27.1C101.1 26.9 101.3 27.2 101.3 27.2C101.4 27.2 101.6 27.4 101.6 27.4C101.8 27.4 102.2 27.9 102.2 27.9C102.3 28 102.7 28.2 102.7 28.2C103 28.3 103.1 28.2 103.1 28.2L103.6 28C103.8 27.9 104.3 28.3 104.3 28.3C104.5 28.3 105.2 28.6 105.2 28.6C105.6 28.8 106.3 29.5 106.3 29.5L106.6 29.6C106.8 29.6 107.6 29.4 107.6 29.4C108.1 29.3 109 29.3 109 29.3C109.4 29.4 109.1 29.6 109.1 29.6C109 29.7 108.3 30 108.3 30C108.1 30.1 107.7 30.4 107.7 30.4C107.6 30.6 106.9 31.1 106.9 31.1C106.8 31.2 106.3 31.6 106.3 31.6C106.3 31.6 106.7 32.5 106.7 32.7C106.9 33.2 107 34.4 107 34.4C107.1 35.1 107.1 36.1 107.1 36.1C107.1 36.1 107.1 36.4 107.3 36.9C107.6 37.2 107.9 37.8 107.9 37.8L108.1 38.2C108.4 38.7 108.2 39.7 108.2 39.7C108.2 40.1 108.1 40.7 108.1 40.7C108.1 40.8 108.1 41.4 108.1 41.4C108.2 41.5 108.2 41.7 108.2 41.8C108.3 41.9 108.4 42.1 108.4 42.2H108.5C109.3 42.5 111.2 42.6 112.9 42.6C115.4 42.6 117.5 42.2 118.8 41.7V34.9Z" fill="#FF4713"/>
  <path d="M86.8 22.5V37C86.8 38.1 87 39 88 39C88.8 39 89.5 38.7 90.2 38.5L90.5 45.3C89.3 45.8 87 46.2 84.5 46.2C81.9 46.2 79.9 45.3 78.9 43.2C77.2 45.1 74.6 46.2 71.5 46.2C65.5 46.2 63 41.8 63 35.9V22.5H71.5V34.8C71.5 37.2 72.3 38.5 74.7 38.5C76.4 38.5 77.4 37.7 78.1 37V22.5H86.8Z" fill="#A1CE61"/>
  <path d="M49.3 35.7C52 35.7 53.7001 33.7 53.7001 31.2C53.7001 28.7 52 26.7 49.3 26.7C46.7 26.7 44.9001 28.7 44.9001 31.2C45.0001 33.7 46.8 35.7 49.3 35.7ZM49.3 18.9C56.6 18.9 61.9001 24.2 61.9001 31.2C61.9001 38.2 56.6 43.4 49.3 43.4C42.1 43.4 36.8 38.2 36.8 31.2C36.8 24.1 42.1 18.9 49.3 18.9Z" fill="#0099A8"/>
  <path d="M18.9 16.5V28.1C20.7 26.3 23.2 25.2 26.3 25.2C32.9 25.2 35.6 30.3 35.6 36.6V41.8C35.6 43 35.8 44 36.9 44C37.7 44 38.5 43.7 39.3 43.4L39.5 50.9C38.1 51.4 35.8 51.9 33 51.9C28.7 51.9 26.1 49.8 26.1 44.2V38.3C26.1 35.4 24.8 34 22.5 34C20.6 34 19.4 35.1 18.8 36.1V51.5H9.5V16.5H18.9Z" fill="#636569"/>
  <path d="M13.4 11.9C14.2 11.9 14.8 11.3 14.8 10.5C14.8 9.70001 14.3 9.10001 13.4 9.10001C12.6 9.10001 12 9.70001 12 10.5C12 11.3 12.6 11.9 13.4 11.9ZM13.4 6.70001C15.7 6.70001 17.3 8.30001 17.3 10.5C17.3 12.7 15.6 14.3 13.4 14.3C11.2 14.3 9.5 12.7 9.5 10.5C9.5 8.30001 11.1 6.70001 13.4 6.70001Z" fill="#636569"/>
  <path d="M25.8 6.89999V11.4C25.8 11.7 25.9 12 26.2 12C26.4 12 26.7 11.9 26.9 11.8L27 13.9C26.6 14.1 25.9 14.2 25.1 14.2C24.3 14.2 23.7 13.9 23.4 13.3C22.9 13.9 22.1 14.2 21.1 14.2C19.2 14.2 18.5 12.8 18.5 11V6.89999H21.2V10.7C21.2 11.4 21.4 11.8 22.2 11.8C22.7 11.8 23 11.6 23.3 11.3V6.89999H25.8Z" fill="#636569"/>
  <path d="M31.1 4.29999V6.79999H33.5V8.89999H31.1V11C31.1 11.6 31.4 11.9 31.9 11.9C32.3 11.9 32.8 11.7 33.1 11.4L33.9001 13.4C33.1001 13.9 32.1 14.2 31 14.2C29.4 14.2 28.5 13.3 28.5 11.4V8.89999H27.3V6.89999H28.6L28.9 4.39999H31.1V4.29999Z" fill="#636569"/>
  <path d="M42.6 6.90001V10.7C42.6 11.4 42.8 11.8 43.4 11.8C44.1 11.8 44.4 11.3 44.4 10.4C44.4 8.90001 43.8 7.70001 43.5 6.80001H46.3C46.5 7.40001 47 8.80001 47 10.6C47 12.7 45.8 14.2 43.5 14.2C42.3 14.2 41.6 13.8 41.1 13.1C40.6 13.8 39.8 14.2 38.6 14.2C36.5 14.2 35.5 13 35.5 11V9.60001C35.5 9.30001 35.5 9.00001 35.1 9.00001C34.8 9.00001 34.5 9.10001 34.4 9.20001L34.5 7.00001C35.1 6.80001 35.6 6.70001 36.4 6.70001C37.7 6.70001 38.3 7.50001 38.3 8.80001V10.6C38.3 11.4 38.5 11.8 39.1 11.8C39.7 11.8 40 11.4 40 10.5V6.90001H42.6Z" fill="#636569"/>
  <path d="M53.2999 9.50001C52.9999 9.20001 52.5999 9.00001 52.0999 9.00001C51.2999 9.00001 50.7 9.60001 50.7 10.5C50.7 11.4 51.1999 11.9 52.0999 11.9C52.4999 11.9 52.8999 11.7 53.2999 11.5V9.50001ZM56 11.4C56 11.7 56.1 12 56.4 12C56.6 12 56.7999 11.9 57.0999 11.8L57.2 13.9C56.8 14.1 56.1 14.2 55.4 14.2C54.5 14.2 53.8999 13.9 53.5999 13.2C53.0999 13.8 52.4 14.2 51.5 14.2C49.5 14.2 48.2 12.6 48.2 10.5C48.2 8.30001 49.5 6.70001 51.5 6.70001C52.4 6.70001 53 7.00001 53.5 7.50001V6.90001H56V11.4Z" fill="#636569"/>
  <path d="M58.7 9.60001C58.7 9.30001 58.6 9.00001 58.3 9.00001C58 9.00001 57.7 9.10001 57.6 9.20001V7.00001C57.6 7.00001 58.5 6.70001 59.4 6.70001C60.3 6.70001 60.9 7.00001 61.2 7.80001C61.5 7.20001 62 6.70001 62.9 6.70001C63.6 6.70001 64.2 6.90001 64.2 7.00001L63.9 9.40001C63.9 9.40001 63.2 9.10001 62.5 9.10001C61.7 9.10001 61.4 9.70001 61.4 10.3V14H58.7V9.60001Z" fill="#636569"/>
  <path d="M68.9 11.9C69.3 11.9 69.8 11.7 70.1 11.5V9.49999C69.7 9.19999 69.3 8.99999 68.9 8.99999C68.1 8.99999 67.5 9.59999 67.5 10.4C67.5 11.4 68 11.9 68.9 11.9ZM72.7 4.29999V11.4C72.7 11.7 72.7 12 73.1 12C73.3 12 73.5 11.9 73.8 11.8L73.9 13.9C73.5 14 72.8 14.2 72 14.2C71.1 14.2 70.5 13.9 70.3 13.2C69.9 13.8 69.2 14.2 68.2 14.2C66.3 14.2 64.9 12.6 64.9 10.4C64.9 8.19999 66.3 6.69999 68.2 6.69999C69 6.69999 69.7 6.99999 70.2 7.49999V4.29999H72.7Z" fill="#636569"/>
  <path d="M149.1 19.9H149.3C149.5 19.9 149.6 19.8 149.6 19.7C149.6 19.6 149.5 19.5 149.3 19.5C149.2 19.5 149.2 19.5 149.1 19.5V19.9ZM149.1 20.7H148.8V19.3C148.9 19.3 149.1 19.3 149.3 19.3C149.6 19.3 149.7 19.3 149.8 19.4C149.9 19.5 149.9 19.6 149.9 19.7C149.9 19.9 149.8 20 149.6 20C149.7 20.1 149.8 20.2 149.9 20.3C149.9 20.5 150 20.6 150 20.6H149.7C149.7 20.5 149.6 20.4 149.6 20.3C149.6 20.1 149.5 20.1 149.3 20.1H149.1V20.7ZM148.3 20C148.3 20.6 148.8 21.1 149.4 21.1C150 21.1 150.4 20.6 150.4 20C150.4 19.4 150 18.9 149.3 18.9C148.7 18.9 148.3 19.4 148.3 20ZM150.7 20C150.7 20.8 150.1 21.4 149.3 21.4C148.5 21.4 147.9 20.8 147.9 20C147.9 19.2 148.5 18.6 149.3 18.6C150.1 18.6 150.7 19.2 150.7 20Z" fill="#636569"/>
</svg>
